<?xml version="1.0" standalone="no"?>
<!DOCTYPE svg PUBLIC "-//W3C//DTD SVG 20010904//EN"
 "http://www.w3.org/TR/2001/REC-SVG-20010904/DTD/svg10.dtd">
<svg version="1.0" xmlns="http://www.w3.org/2000/svg"
 width="1136.000000pt" height="1136.000000pt" viewBox="0 0 1136.000000 1136.000000"
 preserveAspectRatio="xMidYMid meet">
<metadata>
Created by potrace 1.11, written by Peter Selinger 2001-2013
</metadata>
<g transform="translate(0.000000,1136.000000) scale(0.100000,-0.100000)"
fill="#000000" stroke="none">
<path d="M0 5680 l0 -5680 2785 0 2785 0 -10 26 c-19 48 -12 119 17 174 38 74
76 100 146 100 31 0 59 5 63 12 9 14 -23 38 -50 38 -12 0 -38 5 -59 11 -32 9
-36 12 -27 29 6 11 9 25 8 32 -2 8 8 14 24 16 31 4 58 35 58 69 0 27 -20 73
-32 73 -17 0 -7 26 15 35 38 17 43 66 18 214 -13 73 -20 143 -17 157 4 16 -4
48 -22 92 -16 37 -27 72 -25 79 3 7 -11 28 -31 48 -50 50 -78 153 -60 222 6
20 7 20 35 5 34 -20 62 -8 67 27 2 12 11 21 21 21 55 0 51 67 -14 240 -71 190
-70 186 -28 229 20 20 49 64 66 99 l29 63 23 -48 c31 -67 53 -83 121 -90 33
-3 74 -14 92 -24 18 -11 35 -19 36 -19 2 0 11 20 21 45 14 39 20 45 38 39 37
-11 40 -10 56 18 13 23 14 32 3 60 -10 28 -10 35 3 44 14 10 14 12 -2 18 -15
6 -13 10 14 27 17 11 36 33 43 49 15 36 16 36 59 9 18 -11 35 -18 38 -16 2 3
-5 30 -15 60 l-20 55 27 25 c14 13 34 27 44 30 21 8 22 40 2 71 -14 21 -14 25
0 36 12 10 28 6 88 -24 87 -43 116 -47 60 -9 -22 16 -53 38 -68 51 l-28 22 28
30 c34 36 55 37 156 11 42 -11 96 -22 121 -26 43 -7 46 -6 46 17 0 12 1 30 3
38 3 10 -1 13 -11 10 -25 -8 -121 -5 -180 6 l-55 10 31 17 c44 23 104 31 138
17 27 -10 32 -8 65 23 20 19 42 32 49 30 21 -8 13 -24 -10 -21 -15 2 -23 -2
-23 -12 0 -11 11 -15 45 -13 63 2 100 18 100 43 0 12 7 34 15 50 12 23 22 30
45 30 37 0 48 -18 16 -26 -29 -7 -45 -42 -25 -55 33 -21 50 -6 74 61 9 24 23
52 32 62 15 17 17 17 39 -7 26 -28 38 -26 102 18 l42 30 26 -24 c31 -29 70
-94 80 -132 l7 -29 -32 16 c-17 9 -31 21 -31 26 0 6 -11 8 -24 4 -14 -3 -56 2
-94 12 -79 20 -109 15 -92 -15 15 -29 13 -31 -22 -31 -18 0 -40 -5 -48 -10
-13 -9 -12 -12 4 -25 26 -20 29 -19 64 10 36 30 52 31 94 5 42 -26 68 -26 68
-1 0 11 5 23 10 26 6 3 10 2 10 -2 0 -5 22 -22 49 -37 40 -24 81 -69 81 -89 0
-3 -11 -7 -23 -11 -13 -3 -59 -33 -103 -66 -62 -49 -80 -59 -89 -48 -18 25
-59 48 -83 48 -21 0 -23 -3 -17 -27 3 -15 15 -33 25 -40 63 -44 66 -75 10 -92
-22 -6 -40 -15 -40 -19 0 -4 -4 -13 -9 -21 -7 -12 -14 -10 -37 8 l-29 23 -8
-34 c-5 -18 -9 -41 -10 -50 -1 -10 -8 -17 -16 -15 -10 1 -19 -14 -29 -46 -13
-46 -15 -48 -43 -42 -20 5 -40 0 -68 -16 l-40 -22 29 -33 c32 -37 50 -89 50
-149 0 -30 12 -61 45 -117 25 -43 45 -84 45 -92 0 -13 -70 -46 -135 -62 -21
-5 -27 -2 -32 14 -5 22 -79 79 -89 69 -3 -3 7 -24 22 -46 16 -25 23 -45 18
-50 -12 -11 -182 -50 -189 -43 -3 3 -5 18 -5 34 0 17 -4 27 -10 23 -5 -3 -18
-1 -28 4 -18 9 -19 7 -14 -39 l4 -48 -66 -7 c-36 -4 -79 -5 -96 -3 -21 3 -27
1 -20 -7 6 -8 5 -17 -3 -26 -10 -13 -26 -14 -107 -5 l-95 11 -11 50 c-6 28 -9
73 -6 102 3 38 0 59 -12 77 -18 28 -85 53 -113 42 -17 -7 -17 -8 1 -22 11 -8
28 -14 38 -14 10 0 27 -9 39 -21 16 -16 19 -28 14 -63 -9 -58 20 -224 52 -306
15 -36 53 -113 85 -171 55 -100 98 -201 98 -233 0 -7 -9 -16 -19 -19 -11 -2
-29 -23 -40 -45 -11 -22 -30 -47 -41 -55 -19 -13 -19 -15 -3 -29 28 -24 59
-38 86 -38 22 0 25 5 32 55 3 30 10 55 15 55 17 0 84 -85 108 -139 48 -103 29
-215 -43 -250 -40 -19 -145 -26 -188 -12 -80 27 -137 135 -137 263 0 51 3 61
20 65 21 6 28 39 10 45 -22 7 -40 94 -50 236 -10 150 -25 238 -41 248 -15 9
-10 27 6 20 22 -8 19 16 -13 87 -29 62 -87 130 -107 124 -5 -2 -21 -24 -34
-51 l-24 -47 34 -35 c30 -31 34 -41 34 -87 0 -34 -10 -77 -29 -123 l-28 -72 5
-198 c3 -125 13 -249 26 -334 11 -74 23 -178 27 -230 l6 -95 -29 -17 c-50 -29
-83 -66 -83 -93 0 -22 4 -25 33 -25 36 0 57 15 57 40 0 9 9 25 20 35 18 17 20
16 49 -31 43 -68 51 -133 26 -212 l-7 -22 2696 0 2696 0 0 5680 0 5680 -5680
0 -5680 0 0 -5680z m5920 4145 c334 -12 733 -89 1080 -207 413 -141 786 -338
1145 -606 301 -225 614 -539 844 -847 955 -1276 1098 -3013 366 -4422 -198
-380 -413 -679 -699 -972 -198 -201 -265 -259 -277 -240 -16 25 -10 47 14 51
23 3 23 3 8 83 -5 28 -15 124 -20 215 -18 275 -60 374 -171 394 l-35 7 40 -19
c55 -26 101 -81 120 -144 15 -52 20 -182 9 -250 -6 -35 -8 -36 -40 -31 -30 5
-34 4 -28 -13 4 -11 13 -26 21 -35 11 -14 11 -18 0 -28 -11 -8 -18 -6 -32 9
-30 34 -41 25 -41 -34 1 -69 -24 -107 -81 -121 -48 -12 -48 -13 29 -127 32
-48 58 -91 58 -96 0 -9 -169 -136 -174 -131 -2 2 -12 20 -22 39 l-19 35 -3
-55 -3 -56 -127 -81 c-137 -87 -191 -117 -198 -110 -3 2 16 27 41 55 l46 51
-36 27 c-28 21 -35 32 -30 48 3 12 10 72 15 135 6 71 17 129 29 157 19 43 21
44 65 44 l45 0 -24 46 c-14 26 -25 54 -25 62 0 20 29 52 47 52 10 0 13 18 13
70 0 79 22 146 51 155 16 5 18 13 13 63 -5 52 -3 61 24 102 17 25 52 63 78 84
45 37 46 40 25 48 -33 12 -18 24 39 31 28 3 54 8 59 11 19 12 73 141 88 208
12 60 14 118 9 318 -11 513 -53 710 -185 883 l-49 63 30 40 c129 171 143 363
58 786 -22 108 -40 199 -40 202 0 3 6 6 13 6 26 0 113 71 158 130 81 103 172
298 204 432 l14 59 -27 -26 c-40 -40 -89 -62 -182 -81 -131 -26 -262 -6 -290
45 -15 29 17 85 77 131 99 77 93 66 43 80 -25 7 -58 17 -74 23 l-30 11 58 51
c100 89 218 151 261 135 14 -5 21 -18 23 -41 5 -69 10 -75 69 -102 88 -38 101
-41 107 -20 12 40 28 228 24 274 -10 99 -96 228 -164 245 -37 9 -181 -28 -268
-70 -107 -52 -223 -142 -366 -283 -144 -143 -134 -146 30 -8 137 115 281 213
374 255 67 31 184 65 192 57 2 -2 -17 -17 -44 -34 -26 -16 -120 -88 -207 -158
-204 -164 -313 -245 -331 -245 -10 0 -14 -12 -14 -40 0 -22 -11 -69 -25 -106
-31 -82 -31 -118 -1 -171 l24 -41 -19 -59 c-10 -32 -23 -77 -29 -99 -10 -42
-48 -100 -58 -90 -3 3 3 15 13 26 21 23 15 24 -38 9 -38 -10 -39 -11 -32 -47
5 -20 7 -45 7 -55 -1 -16 6 -17 71 -11 64 5 181 -7 195 -21 12 -12 -12 -19
-64 -19 -36 -1 -58 4 -63 13 -7 11 -16 10 -52 -6 -56 -25 -79 -48 -79 -78 0
-19 8 -26 38 -34 20 -6 48 -11 62 -12 14 0 34 -4 44 -8 19 -7 18 -8 -5 -14
-20 -6 -22 -9 -8 -17 9 -5 22 -23 28 -38 11 -26 19 -30 63 -35 28 -4 56 -11
61 -16 13 -13 -62 -102 -109 -131 -18 -12 -34 -23 -34 -26 0 -2 23 -29 50 -59
60 -66 65 -90 18 -81 -83 17 -83 17 -86 -48 -2 -44 0 -57 10 -54 7 2 17 19 23
36 9 33 19 40 30 22 9 -15 42 -12 77 6 27 14 32 14 45 1 18 -18 9 -37 -17 -37
-10 0 -22 -5 -26 -12 -5 -8 5 -9 39 -5 25 4 48 3 51 -2 7 -11 -21 -35 -61 -50
-67 -27 -84 -81 -29 -91 38 -7 43 -23 14 -50 -40 -37 -69 -24 -102 47 -29 61
-55 83 -96 83 -34 0 -22 -20 25 -40 56 -24 62 -52 10 -43 -45 7 -48 -15 -5
-39 21 -12 30 -25 30 -43 0 -25 2 -25 51 -23 70 4 75 -16 10 -32 -28 -7 -62
-21 -76 -32 -21 -16 -28 -18 -40 -8 -19 16 -19 30 -1 30 26 0 29 21 5 46 -13
14 -34 24 -51 24 -32 0 -35 -7 -11 -25 18 -14 8 -39 -13 -31 -7 3 -26 -5 -40
-18 -23 -19 -27 -31 -28 -79 -1 -52 -3 -57 -23 -57 -26 0 -31 -15 -8 -24 19
-7 19 -21 -1 -41 -12 -12 -19 -13 -30 -4 -21 17 -18 -9 3 -33 21 -23 59 -23
72 0 9 16 11 16 28 -2 13 -13 15 -20 6 -23 -7 -3 -13 -13 -13 -24 0 -25 -11
-24 -67 7 -48 26 -48 26 -88 9 -26 -12 -35 -20 -25 -23 22 -7 30 -23 30 -59 0
-27 -4 -32 -27 -35 -17 -2 -32 -12 -39 -26 -16 -33 -18 -34 -59 -17 -50 21
-58 10 -16 -25 18 -16 30 -33 27 -39 -10 -16 -66 9 -78 35 l-11 24 -24 -22
c-17 -16 -26 -19 -34 -11 -8 8 -5 13 10 18 12 3 21 15 21 26 0 23 2 23 -45 3
-39 -16 -99 -12 -111 7 -3 6 2 19 12 30 17 18 16 19 -13 19 -26 0 -31 -5 -37
-31 -10 -53 -8 -59 23 -59 20 0 46 -14 83 -46 29 -25 66 -48 81 -51 19 -4 27
-11 25 -22 -6 -28 -89 -20 -126 11 -18 15 -48 32 -69 38 -21 7 -42 16 -47 21
-17 15 -26 10 -26 -14 0 -24 -25 -67 -40 -67 -5 0 -10 15 -12 33 l-3 32 -42
-42 c-39 -40 -73 -55 -73 -34 0 12 -71 59 -101 66 -18 4 -31 1 -43 -10 -16
-16 -14 -19 17 -43 44 -34 94 -100 102 -134 7 -27 6 -28 -31 -27 -22 0 -66 10
-99 22 l-60 22 -33 105 c-49 152 -71 206 -94 227 -20 17 -20 17 -13 -18 15
-82 -42 -179 -117 -200 -54 -14 -114 8 -161 61 -33 36 -36 37 -41 17 -10 -39
-7 -45 44 -82 83 -61 93 -99 42 -155 -9 -10 -25 -30 -35 -44 -22 -32 -40 -33
-99 -1 -26 14 -53 25 -60 25 -13 1 -72 72 -83 101 -4 11 -25 18 -68 22 -34 3
-70 9 -80 12 -12 5 -17 2 -17 -9 0 -22 -55 -48 -93 -44 -32 3 -34 8 -22 40 6
16 4 16 -23 7 -24 -8 -37 -7 -61 6 -17 8 -31 20 -31 25 0 6 -12 10 -26 10 -22
0 -24 3 -18 23 3 12 11 28 16 35 13 15 38 16 38 0 0 -6 3 -8 6 -5 10 9 -16 66
-34 76 -12 7 -20 -1 -36 -33 -25 -49 -77 -86 -122 -86 -49 0 -67 24 -62 82 5
48 5 48 -15 31 -10 -10 -30 -42 -43 -72 -22 -49 -47 -80 -66 -81 -11 0 -10 44
2 75 12 32 2 55 -14 33 -6 -8 -25 -22 -42 -31 -36 -18 -45 -35 -37 -66 3 -14
13 -21 29 -21 32 0 31 -23 -3 -50 l-28 -22 -3 31 c-4 40 -20 39 -54 -1 -26
-32 -28 -33 -55 -18 -36 20 -40 46 -11 69 29 24 18 38 -14 18 -12 -8 -44 -18
-70 -21 -56 -8 -69 -21 -31 -31 25 -6 26 -8 9 -17 -20 -11 -72 -4 -93 13 -11
10 -11 15 2 29 11 13 13 26 8 54 l-8 38 -28 -22 c-15 -12 -39 -45 -53 -73 -15
-29 -35 -62 -46 -73 -19 -21 -19 -22 -1 -57 19 -34 20 -34 47 -20 15 8 44 13
64 11 34 -3 37 -6 40 -35 4 -40 27 -44 44 -9 13 31 33 39 48 21 9 -11 8 -21
-4 -42 -18 -32 -48 -134 -42 -141 13 -12 44 14 66 55 25 46 50 67 50 41 0 -7
-14 -33 -30 -58 -32 -49 -39 -90 -15 -90 8 0 15 7 15 15 0 8 4 15 10 15 10 0
18 -25 22 -75 3 -29 5 -30 44 -27 55 4 68 -22 27 -55 -18 -15 -24 -26 -17 -33
6 -6 26 2 59 25 57 41 69 43 89 13 19 -27 6 -44 -21 -28 -17 11 -23 9 -45 -13
l-26 -26 22 -20 c12 -11 36 -24 54 -27 31 -6 32 -5 32 25 0 40 11 39 49 -4 36
-41 40 -74 11 -82 -23 -6 -27 -33 -6 -33 14 0 50 39 59 63 3 8 13 4 31 -12 14
-14 28 -23 30 -20 27 28 136 173 136 180 0 6 -10 3 -22 -5 -12 -9 -40 -16 -61
-16 -37 0 -39 -2 -33 -25 14 -57 -43 -90 -66 -39 -10 22 -9 27 6 36 23 13 60
98 47 111 -15 15 -55 0 -101 -38 -23 -19 -47 -32 -53 -28 -6 4 2 17 22 34 43
36 37 54 -16 51 -48 -4 -58 7 -41 43 9 21 9 33 0 58 -11 28 -10 33 5 42 27 16
73 62 73 74 0 26 -33 7 -67 -38 -21 -27 -48 -54 -60 -60 -21 -10 -23 -8 -23
19 0 24 -13 43 -61 89 -57 56 -68 81 -34 81 8 0 25 -16 37 -35 13 -19 26 -35
30 -35 4 0 10 16 14 35 6 36 38 85 55 85 5 0 6 -20 2 -46 -7 -53 11 -77 35
-43 15 22 32 23 101 7 56 -13 60 -21 31 -58 -11 -14 -20 -33 -20 -42 0 -28 26
-21 50 12 22 31 60 41 60 15 0 -8 9 -19 20 -25 15 -8 20 -21 20 -53 0 -25 8
-52 19 -66 l19 -24 7 31 c9 43 18 46 62 22 21 -11 47 -20 59 -20 19 0 22 -5
22 -42 -1 -24 9 -75 21 -114 27 -91 27 -98 -5 -113 -35 -16 -42 -7 -21 29 31
52 -22 48 -57 -5 -10 -15 -26 -25 -40 -25 -19 0 -23 -4 -19 -20 4 -16 0 -20
-21 -20 -30 0 -34 -14 -8 -29 16 -9 15 -11 -7 -27 -25 -18 -81 -101 -81 -120
0 -7 10 -14 22 -16 20 -3 38 -24 73 -83 10 -17 13 -17 43 -1 36 19 42 36 12
36 -11 0 -23 7 -27 16 -7 19 25 80 54 103 20 17 21 20 7 46 -8 15 -14 34 -14
41 0 27 20 14 40 -26 22 -43 41 -57 60 -45 9 5 9 10 1 18 -26 26 0 97 36 97
10 0 11 -4 1 -19 -10 -17 -6 -26 30 -65 50 -54 53 -68 12 -53 -38 14 -55 0
-46 -38 9 -34 30 -41 61 -21 19 13 25 25 25 54 0 44 21 79 40 67 9 -5 11 -29
8 -86 -4 -67 -10 -89 -50 -166 -34 -67 -50 -89 -67 -91 -26 -4 -54 17 -33 25
19 7 15 16 -26 61 -55 60 -105 54 -72 -8 7 -14 7 -25 -2 -39 -10 -17 -9 -24
10 -44 26 -28 29 -55 6 -64 -11 -4 -23 2 -35 18 -11 15 -21 20 -27 14 -7 -8
-31 -80 -49 -144 -4 -17 -53 -6 -71 17 -10 14 -9 18 8 24 13 5 20 16 20 33 0
36 -40 33 -85 -6 -26 -23 -35 -27 -35 -15 0 9 -9 21 -20 28 -11 7 -20 17 -20
22 0 4 9 6 20 3 18 -4 20 0 20 35 0 36 6 46 51 87 75 68 77 76 18 77 -41 0
-50 -3 -55 -20 -7 -22 -83 -106 -96 -106 -4 0 -8 11 -8 24 0 15 -22 46 -64 89
l-64 66 -49 -37 c-40 -30 -55 -36 -91 -35 -40 1 -42 0 -40 -24 3 -29 -19 -44
-28 -19 -3 8 4 29 16 46 16 23 19 35 12 42 -12 12 -32 -8 -84 -86 -35 -52 -35
-65 0 -63 26 2 27 0 25 -43 l-2 -45 53 -1 c97 -3 158 -37 175 -99 5 -22 16
-31 47 -40 41 -13 39 -14 -33 -34 -23 -6 -50 -19 -59 -28 -16 -16 -15 -18 5
-31 11 -8 21 -23 21 -33 0 -29 13 -29 75 1 96 46 96 46 128 -5 16 -24 42 -59
58 -76 l30 -32 20 32 c23 39 46 49 65 29 13 -13 9 -20 -31 -57 -40 -36 -51
-42 -76 -37 -34 6 -34 5 18 -62 18 -24 33 -50 33 -57 0 -22 -20 -28 -47 -14
-19 10 -28 11 -41 1 -9 -7 -35 -20 -56 -30 l-39 -18 71 -48 c39 -26 74 -51 77
-56 3 -5 -13 -14 -36 -20 -40 -11 -43 -10 -72 22 -28 30 -32 31 -35 13 -7 -33
-20 -42 -70 -50 l-47 -8 46 -12 c68 -18 70 -20 53 -60 -10 -24 -11 -41 -5 -59
15 -37 26 -39 61 -9 28 23 35 25 53 13 18 -11 23 -10 37 7 17 22 52 43 71 43
8 0 10 -18 7 -62 -5 -62 -5 -63 33 -99 37 -34 38 -37 26 -68 -6 -17 -13 -27
-15 -21 -4 12 -42 14 -42 1 0 -17 30 -80 41 -87 7 -4 25 9 45 32 l33 39 18
-25 c9 -14 34 -40 55 -59 32 -29 58 -84 45 -97 -2 -2 -15 5 -29 16 -25 19 -25
19 -44 -1 -16 -18 -17 -26 -6 -89 6 -38 9 -76 6 -85 -4 -10 9 -34 35 -65 45
-54 48 -60 26 -60 -17 0 -21 -41 -6 -68 5 -9 6 -35 2 -57 l-7 -40 -13 57 c-14
67 -51 111 -90 106 -35 -4 -39 -34 -6 -42 68 -17 72 -180 5 -216 -41 -22 -50
-67 -50 -242 0 -92 -7 -204 -15 -258 -8 -52 -15 -112 -15 -133 0 -54 66 -178
144 -270 95 -112 96 -143 8 -260 -88 -116 -243 -116 -323 1 -20 30 -24 48 -24
112 0 69 3 82 32 129 24 37 31 59 27 79 -3 15 6 74 21 130 17 69 26 131 26
185 0 45 1 120 2 167 2 75 -1 89 -21 116 -18 24 -25 50 -31 111 -5 59 -12 86
-29 107 -33 43 -45 101 -37 181 8 81 12 90 31 74 16 -13 37 0 55 34 8 14 6 23
-8 39 -15 17 -18 35 -16 99 2 59 0 79 -10 79 -7 0 -18 21 -25 46 -23 85 -87
124 -203 124 -68 0 -132 -37 -169 -98 -14 -23 -28 -42 -31 -42 -17 -1 -54 72
-66 129 -7 35 -16 67 -18 70 -11 10 -20 -14 -25 -67 -4 -48 -8 -57 -25 -60
-13 -2 -29 8 -43 28 -29 38 -41 38 -40 0 1 -29 -7 -48 -16 -39 -2 2 -7 71 -11
153 l-8 149 31 -21 c36 -26 40 -27 64 -5 29 26 23 67 -14 99 l-33 27 73 -7
c57 -5 73 -3 70 6 -3 7 3 31 13 53 29 62 25 82 -21 105 -66 34 -86 24 -54 -26
20 -29 19 -30 -27 -39 -32 -6 -37 -4 -42 15 -3 12 -2 33 4 46 12 32 -12 42
-46 20 -51 -34 -73 -11 -34 38 14 18 19 37 17 63 -4 43 -28 59 -28 18 0 -31
-16 -65 -31 -65 -6 0 -20 11 -31 25 -22 28 -44 32 -74 11 -12 -9 -26 -11 -33
-6 -10 5 2 18 42 43 30 19 58 40 61 46 4 5 -8 26 -25 46 -25 28 -29 38 -20 49
14 16 8 21 -36 30 -21 5 -30 12 -27 21 3 8 -12 32 -36 55 l-42 41 36 43 c29
36 33 45 20 50 -23 9 -79 7 -107 -3 -22 -9 -27 -6 -40 22 -35 73 -37 84 -17
102 31 28 91 44 170 45 l75 0 -85 50 c-94 56 -139 72 -179 64 -23 -5 -29 0
-49 41 -13 26 -32 49 -42 52 -24 6 -25 16 -6 33 8 6 20 36 26 65 6 30 21 66
32 81 l21 26 -21 -7 c-32 -10 -89 12 -150 58 -29 22 -55 37 -58 34 -3 -3 13
-79 36 -169 60 -234 62 -294 15 -410 -5 -13 2 -17 37 -23 57 -10 58 -10 45
-44 -9 -26 -7 -34 16 -64 31 -41 33 -50 12 -67 -23 -19 -18 -46 20 -99 70 -96
118 -246 149 -462 22 -149 22 -159 -9 -159 -15 0 -34 11 -48 26 -63 75 -84 82
-79 27 5 -49 -11 -88 -43 -109 -25 -16 -27 -16 -41 5 -22 31 -60 47 -138 59
-37 6 -70 13 -72 15 -8 7 35 93 56 112 25 23 30 18 37 -34 4 -31 10 -41 24
-41 13 0 19 7 19 24 0 31 30 43 47 20 7 -10 13 -34 13 -55 0 -33 3 -37 32 -43
40 -8 42 -5 23 30 -8 16 -15 48 -15 72 0 60 -15 86 -39 70 -26 -16 -47 2 -62
52 -10 33 -18 40 -85 68 -94 41 -104 41 -104 0 0 -18 -3 -51 -7 -73 -3 -22 -2
-37 2 -33 11 10 45 -10 45 -27 0 -20 -20 -23 -70 -10 -40 10 -45 15 -54 50 -8
36 -2 82 19 137 5 12 0 17 -17 20 -17 2 -24 10 -26 31 -5 38 -35 32 -42 -8 -4
-25 -10 -31 -36 -33 -19 -2 -36 3 -44 13 -11 13 -6 22 31 63 50 54 97 92 116
92 7 0 13 11 13 24 0 12 5 37 11 55 24 67 -14 76 -53 13 -12 -21 -27 -40 -32
-44 -6 -4 -34 6 -63 22 -50 29 -113 40 -113 21 0 -5 21 -27 46 -48 l47 -39
-23 -68 c-22 -69 -55 -104 -85 -92 -8 3 -15 2 -15 -2 0 -18 27 -32 63 -32 39
0 76 -14 89 -34 12 -18 -1 -24 -42 -19 -44 6 -45 5 -28 -31 l11 -26 54 31 c30
17 56 29 59 27 9 -10 -9 -68 -21 -68 -16 0 -25 -23 -25 -64 0 -18 -6 -40 -13
-50 -12 -16 -18 -17 -50 -7 -19 7 -41 19 -48 28 -11 13 -10 18 10 35 18 14 21
22 13 30 -9 9 -16 8 -29 -4 -10 -8 -36 -21 -58 -28 -22 -7 -51 -19 -63 -27
-22 -13 -25 -13 -38 5 -8 11 -29 30 -48 41 -31 20 -34 26 -40 89 -4 38 -4 76
0 85 10 26 51 33 74 12 27 -24 25 -47 -5 -75 -32 -30 -32 -42 2 -38 24 3 30
11 49 65 20 58 20 63 4 63 -10 0 -23 6 -29 13 -8 11 -5 19 14 37 26 24 35 80
14 80 -6 0 -24 -11 -41 -25 -39 -33 -48 -32 -48 10 0 30 -6 38 -39 59 -49 31
-57 44 -37 59 23 17 4 87 -24 87 -10 0 -25 2 -32 5 -12 5 -17 -18 -26 -111
l-11 -116 33 -31 c40 -38 51 -88 41 -177 l-7 -60 -26 19 c-15 10 -76 62 -137
114 -568 490 -983 1105 -1225 1812 -93 272 -150 518 -191 830 -31 230 -34 748
-6 975 39 312 95 564 187 840 160 481 382 890 706 1298 138 174 458 496 633
635 620 494 1336 796 2116 893 138 17 440 32 540 27 33 -1 121 -5 195 -8z
m2145 -3625 c77 -7 155 -15 174 -18 l34 -7 -119 -100 c-65 -55 -142 -121 -171
-148 l-52 -49 -15 24 c-23 35 -56 164 -63 247 l-6 74 39 -6 c21 -3 102 -11
179 -17z m-105 -500 c0 -11 -10 -30 -22 -42 l-23 -23 -3 22 c-4 28 14 63 33
63 8 0 15 -9 15 -20z m-61 -754 l34 -25 -25 -6 c-41 -10 -98 20 -83 45 10 17
39 11 74 -14z m76 -242 l60 -22 0 -64 c0 -34 4 -75 9 -90 8 -26 6 -28 -23 -28
-17 0 -31 -2 -31 -5 0 -16 38 -59 69 -81 l35 -24 -32 -11 c-38 -13 -40 -42 -5
-47 20 -3 22 -7 16 -48 -5 -40 -4 -44 16 -44 34 0 24 -18 -14 -26 -25 -4 -35
-12 -35 -24 0 -29 11 -50 26 -50 17 0 18 -17 2 -23 -7 -2 -27 -2 -45 1 -32 4
-32 4 -21 -25 10 -26 8 -35 -11 -66 -13 -21 -20 -45 -17 -55 5 -14 -8 -26 -58
-55 -35 -21 -85 -56 -110 -79 -44 -38 -46 -41 -30 -59 14 -16 15 -23 4 -49
-19 -47 -42 -39 -38 13 l3 42 -52 0 -53 0 0 -35 c0 -20 7 -45 15 -57 14 -20
13 -24 -11 -52 -30 -36 -46 -39 -66 -10 -12 19 -15 19 -26 6 -11 -12 -8 -20
13 -42 26 -29 32 -45 15 -45 -5 0 -12 -17 -16 -37 -9 -51 -44 -76 -44 -32 0
18 -4 20 -25 15 -32 -8 -35 19 -4 29 21 7 21 7 -3 32 -12 14 -33 29 -46 34
-22 8 -22 10 -7 38 8 16 13 36 10 43 -4 9 8 20 32 31 46 20 73 62 88 137 11
56 26 69 35 30 5 -21 5 -21 29 4 19 21 23 32 18 65 -4 33 -1 43 19 62 13 12
24 30 24 40 0 10 10 19 28 22 38 7 97 31 100 40 1 4 2 20 2 35 0 29 0 29 -56
24 -72 -6 -71 15 2 39 36 12 49 21 49 35 0 12 -8 20 -22 22 -31 5 -39 32 -8
32 31 0 38 12 25 46 l-11 27 46 -6 c25 -4 45 -4 45 0 0 3 -12 21 -26 40 -28
37 -28 70 -1 65 25 -4 22 40 -5 88 -30 51 -17 68 36 49 69 -25 59 24 -14 69
-69 43 -66 77 5 64 17 -3 57 -15 90 -28z m-451 -64 c7 -7 6 -14 -2 -22 -9 -9
-21 -7 -52 7 -29 13 -37 21 -28 27 15 10 68 2 82 -12z m-233 -221 c28 -28 12
-42 -29 -27 -31 12 -40 27 -25 41 12 13 33 7 54 -14z m-2544 -140 c24 -15 43
-20 66 -15 30 5 31 5 13 -9 -22 -17 -33 -18 -129 -8 l-69 6 29 23 c35 29 47
29 90 3z m248 -199 c9 -15 -12 -48 -36 -55 -27 -9 -32 -2 -24 34 5 24 12 31
30 31 13 0 27 -4 30 -10z m2057 -61 c9 -5 31 -9 48 -9 27 0 30 -2 20 -20 -6
-11 -26 -22 -47 -26 -33 -6 -40 -3 -65 25 -15 17 -28 36 -28 41 0 11 42 4 72
-11z m-2042 -27 c0 -11 -31 -55 -50 -69 -8 -7 -23 -13 -33 -13 -16 0 -16 2 -2
29 21 42 85 82 85 53z m1948 -10 c4 -13 -50 -72 -67 -72 -22 0 -11 49 16 70
27 21 44 22 51 2z m50 -64 c4 -22 -38 -59 -62 -56 -32 5 -30 28 3 39 17 6 31
18 31 26 0 19 24 11 28 -9z m258 -369 c32 -44 61 -69 78 -69 15 0 4 41 -14 50
-11 6 -24 19 -30 30 -19 35 16 24 52 -17 55 -61 71 -73 94 -73 33 0 38 -17 19
-61 -17 -36 -21 -39 -59 -39 -90 0 -156 -40 -156 -94 0 -16 -14 -29 -55 -49
-45 -22 -57 -33 -62 -57 -8 -41 -31 -38 -50 8 -8 20 -16 38 -18 40 -5 5 -85
-47 -85 -56 0 -4 -4 -13 -9 -21 -14 -22 -41 4 -41 40 0 36 -16 46 -40 24 -13
-12 -22 -38 -26 -76 -6 -53 -9 -59 -29 -59 -16 0 -30 -11 -44 -35 -11 -19 -25
-35 -31 -35 -17 0 -11 39 11 69 26 36 17 55 -22 47 -22 -4 -29 -2 -29 10 0 13
-3 13 -29 0 -16 -9 -43 -27 -60 -42 -22 -18 -31 -21 -31 -11 0 30 45 69 126
108 46 22 84 42 84 44 0 2 -5 16 -12 30 -9 19 -9 28 0 37 9 9 14 5 20 -13 9
-23 11 -21 32 28 31 73 88 123 140 123 44 0 49 10 28 55 -25 55 32 42 65 -16
25 -44 34 -46 94 -21 39 15 43 20 43 53 0 22 -9 48 -25 69 -32 44 -32 51 5 39
17 -6 45 -32 66 -60z m-296 17 c0 -8 3 -21 6 -30 5 -12 0 -16 -17 -16 -13 0
-35 -3 -48 -7 -22 -6 -23 -9 -17 -64 5 -53 4 -59 -13 -59 -11 0 -21 -6 -24
-12 -2 -7 -8 -9 -13 -5 -4 4 -3 21 3 37 10 26 9 32 -8 41 -21 11 -39 5 -39
-14 0 -7 -11 -39 -25 -72 -13 -33 -25 -77 -25 -97 0 -21 -4 -38 -9 -38 -17 0
-51 52 -51 79 1 41 35 107 69 132 31 23 42 61 21 74 -21 13 -9 25 24 25 25 0
35 5 39 20 4 17 14 20 66 20 46 0 61 -3 61 -14z m816 -202 c49 -20 49 -20 34
-39 -16 -19 -48 -19 -94 0 -39 16 -43 24 -24 43 16 16 38 15 84 -4z m-2745
-60 c13 -14 34 -30 47 -35 34 -13 26 -29 -14 -29 -28 0 -35 -3 -32 -17 2 -11
14 -19 31 -21 26 -3 28 -6 22 -30 -4 -15 -8 -28 -10 -30 -8 -9 -48 22 -65 51
-25 40 -25 47 0 47 25 0 25 18 0 50 -36 45 -19 57 21 14z m-96 4 c2 -7 5 -34
8 -60 l4 -47 -28 15 c-23 11 -34 12 -50 3 -19 -10 -20 -9 -14 13 9 29 53 88
66 88 5 0 11 -6 14 -12z m815 -23 c0 -2 -12 -39 -26 -81 -20 -61 -24 -87 -19
-125 9 -62 33 -67 37 -7 2 23 8 43 14 45 19 6 25 -43 9 -86 -8 -23 -12 -48 -9
-56 4 -8 2 -15 -3 -15 -17 0 -41 34 -67 92 -14 31 -30 59 -36 63 -7 4 -2 15
15 30 17 17 25 34 25 59 0 21 8 44 23 60 20 24 37 33 37 21z m104 -3 c6 -10
-35 -72 -46 -72 -9 0 -10 26 -2 58 6 21 37 31 48 14z m1879 -11 c42 -18 76
-55 63 -68 -18 -19 -116 47 -116 78 0 12 2 12 53 -10z m-2119 -93 c-13 -66
-55 -102 -69 -58 -8 26 9 56 43 74 15 9 28 15 29 16 1 0 0 -15 -3 -32z m1581
-32 c20 -34 24 -49 16 -63 -5 -10 -12 -26 -15 -35 -10 -33 -36 -21 -36 16 0
18 -3 54 -6 80 -9 59 7 60 41 2z m-149 -7 c-5 -32 -3 -46 10 -60 16 -18 16
-19 -2 -19 -30 0 -84 38 -84 58 0 26 39 58 74 61 5 1 6 -18 2 -40z m395 -25
c17 -34 17 -35 -8 -51 -21 -14 -26 -14 -34 -2 -5 8 -7 20 -4 27 3 8 5 25 5 38
0 35 22 29 41 -12z m-1816 -60 c19 -19 48 -74 42 -80 -10 -11 -65 20 -79 44
-26 45 1 72 37 36z m1845 -60 c75 -8 95 -25 72 -62 -7 -10 -28 -7 -103 12 -52
14 -114 28 -138 31 -42 7 -44 8 -25 22 14 11 34 13 74 9 30 -3 84 -9 120 -12z
m180 -56 c10 -18 18 -33 17 -34 -1 -2 -21 0 -45 3 -38 5 -42 8 -42 34 0 43 43
41 70 -3z m-1850 -57 c14 -28 13 -74 -2 -69 -14 5 -39 68 -31 81 8 13 22 8 33
-12z m1601 -64 c21 -16 53 -66 46 -73 -18 -19 -115 55 -101 78 7 12 36 9 55
-5z m-2126 -399 c30 -13 33 -28 6 -28 -25 0 -74 39 -49 40 9 0 29 -5 43 -12z
m-1703 -209 c21 -14 34 -29 31 -33 -8 -8 -116 -8 -138 0 -14 6 -11 12 17 39
18 18 37 30 43 27 5 -3 27 -18 47 -33z m-162 -19 c0 -5 -2 -10 -4 -10 -3 0 -8
5 -11 10 -3 6 -1 10 4 10 6 0 11 -4 11 -10z m592 -87 c28 -25 22 -55 -14 -76
-23 -13 -28 -21 -20 -29 8 -8 5 -19 -13 -40 -14 -16 -25 -34 -25 -39 0 -16
-19 -10 -148 52 -135 66 -139 74 -26 67 53 -3 70 -9 103 -36 22 -18 45 -32 52
-32 24 0 38 34 32 79 -5 36 -3 47 12 57 24 18 25 17 47 -3z m340 -20 c12 -10
18 -30 18 -57 0 -59 18 -193 34 -254 14 -55 12 -58 -27 -43 -21 8 -30 27 -56
110 -42 134 -65 237 -57 257 8 20 60 12 88 -13z m3263 -79 c13 -5 14 -8 3 -15
-20 -13 -35 -11 -42 6 -6 16 10 20 39 9z m-2510 -38 c81 -34 98 -143 54 -345
-8 -38 -14 -49 -20 -40 -5 8 -7 25 -4 39 7 33 -6 50 -32 44 -56 -15 -57 -268
-2 -376 13 -25 28 -40 47 -44 15 -3 34 -8 43 -10 11 -3 19 -21 24 -51 4 -25
18 -63 32 -84 22 -34 25 -47 21 -104 -5 -80 -25 -110 -98 -147 -64 -33 -126
-36 -185 -9 -60 27 -95 73 -95 125 0 60 24 133 50 154 21 17 22 21 10 57 -9
28 -11 76 -6 174 7 167 -6 241 -64 348 -46 85 -49 115 -18 179 31 67 86 104
155 104 29 0 69 -6 88 -14z m-1087 -71 c-9 -20 -14 -23 -31 -13 -20 10 -20 11
4 24 35 19 40 17 27 -11z m574 -104 c-1 -3 -10 3 -19 12 -15 14 -15 21 -2 59
l14 43 5 -55 c3 -30 4 -57 2 -59z m213 59 c-5 -8 -11 -8 -17 -2 -6 6 -7 16 -3
22 5 8 11 8 17 2 6 -6 7 -16 3 -22z m-60 -19 c44 -17 51 -23 56 -52 3 -19 13
-49 23 -67 l17 -33 -28 8 c-15 4 -45 8 -65 8 -43 0 -47 5 -18 23 11 7 20 17
20 23 0 6 -9 4 -21 -5 -20 -14 -23 -13 -41 9 -10 13 -28 25 -40 27 -34 5 -30
21 10 50 20 14 37 27 37 27 0 1 23 -8 50 -18z"/>
<path d="M4267 7298 c46 -24 124 -72 175 -108 107 -75 274 -237 312 -303 l27
-45 41 44 c22 24 39 46 37 47 -33 25 -345 236 -404 273 -86 55 -205 117 -245
128 -14 4 12 -12 57 -36z"/>
<path d="M4063 7268 c-43 -45 -97 -141 -122 -215 -21 -63 -28 -138 -13 -147 5
-3 27 2 51 10 32 11 56 12 99 5 31 -5 59 -7 62 -5 2 3 -2 14 -9 25 -16 27 -6
37 16 17 10 -9 56 -27 103 -42 102 -30 144 -66 144 -121 0 -30 3 -35 23 -35
50 0 8 -97 -61 -139 -41 -26 -150 -51 -221 -51 -27 0 -68 -5 -90 -11 -56 -15
-89 -59 -45 -59 67 0 115 -62 174 -226 39 -110 44 -119 66 -116 62 7 100 -35
100 -109 l0 -40 30 16 c37 19 66 19 120 0 24 -8 45 -13 48 -10 7 7 -24 74 -57
123 -14 22 -71 87 -125 145 -91 97 -136 153 -136 168 0 11 78 32 90 24 11 -7
9 -30 -6 -68 -5 -13 3 -15 50 -10 78 8 133 -15 192 -80 l46 -52 19 24 c18 22
21 22 43 8 13 -9 34 -32 46 -52 18 -29 25 -33 36 -24 11 9 14 7 14 -15 0 -28
9 -33 28 -14 17 17 15 43 -9 89 -23 46 -20 56 9 40 36 -19 39 -12 23 49 -15
56 -15 63 1 90 19 33 12 38 -18 15 -27 -20 -34 -19 -34 8 0 14 -18 40 -46 67
-60 59 -66 71 -53 108 8 24 4 53 -20 152 -27 107 -37 132 -87 207 -69 104
-156 179 -279 239 -115 56 -157 58 -202 12z"/>
<path d="M3958 7248 c-72 -94 -98 -186 -105 -363 -8 -201 17 -366 88 -585 52
-158 157 -351 228 -414 l20 -19 -24 -19 c-32 -25 -53 -65 -76 -146 l-18 -65
38 -66 c21 -36 50 -89 64 -117 l26 -52 67 6 c49 4 72 10 90 27 13 12 24 25 24
29 0 3 -21 6 -48 6 -44 0 -92 20 -92 39 0 4 17 12 38 17 26 6 38 15 40 30 3
18 -1 21 -21 17 -26 -5 -67 11 -67 27 0 5 31 8 69 7 77 -2 113 12 130 50 12
25 11 26 -26 20 -21 -4 -45 -2 -53 3 -11 7 -7 10 18 10 19 0 40 8 52 20 25 25
25 37 1 45 -10 3 -40 37 -66 76 -30 47 -57 75 -76 82 -34 13 -38 33 -9 42 33
11 24 40 -19 59 -57 25 -133 97 -185 175 -201 302 -253 813 -107 1044 35 54
34 61 -1 15z"/>
<path d="M5935 7200 c-209 -22 -442 -68 -528 -106 -55 -25 -39 -27 29 -4 68
24 230 53 389 71 120 14 453 18 525 7 43 -6 42 -5 -15 13 -72 24 -263 32 -400
19z"/>
<path d="M6850 7131 c0 -37 -22 -45 -94 -37 -78 9 -102 -21 -38 -45 27 -11
159 -15 168 -6 6 5 -25 117 -32 117 -2 0 -4 -13 -4 -29z"/>
<path d="M6410 7136 c0 -8 14 -26 30 -40 53 -44 174 -48 214 -5 l21 21 -21
-11 c-14 -7 -52 -8 -103 -4 -67 5 -84 10 -102 29 -25 27 -39 30 -39 10z"/>
<path d="M5235 7086 c-29 -13 -76 -56 -61 -56 4 0 28 12 53 27 44 26 47 26 74
10 34 -19 39 -5 7 17 -27 19 -34 19 -73 2z"/>
<path d="M6910 7025 c-10 -12 -7 -16 16 -25 90 -34 281 -118 368 -162 128 -64
202 -111 246 -157 30 -32 32 -32 16 -7 -10 16 -30 39 -45 52 -42 37 -214 136
-378 218 -83 41 -154 80 -158 86 -9 15 -51 12 -65 -5z"/>
<path d="M5019 6995 c-93 -32 -115 -45 -98 -56 23 -15 50 -10 67 11 10 11 44
31 77 45 76 31 42 31 -46 0z"/>
<path d="M8357 6585 c-5 -11 -22 -15 -67 -15 -59 0 -60 0 -74 -35 -11 -26 -27
-41 -57 -54 -40 -18 -41 -19 -20 -31 27 -14 53 -6 115 37 28 19 56 31 66 28
12 -4 22 5 35 35 10 22 16 43 13 46 -3 2 -8 -2 -11 -11z"/>
<path d="M6390 6526 c0 -3 15 -20 34 -39 18 -18 35 -39 37 -45 5 -15 89 -28
89 -14 0 6 -10 17 -22 23 -13 7 -39 25 -58 40 -33 26 -80 46 -80 35z"/>
<path d="M6045 6321 c-3 -5 -1 -12 5 -16 5 -3 10 -17 10 -31 0 -27 7 -29 33
-10 21 16 22 30 1 50 -17 18 -40 21 -49 7z"/>
<path d="M7073 6283 c-18 -37 -17 -42 13 -54 59 -22 87 22 38 60 -34 27 -36
26 -51 -6z"/>
<path d="M7610 6251 c16 -31 1 -52 -57 -77 -49 -22 -66 -45 -43 -59 12 -8 99
40 123 67 21 25 22 74 1 82 -28 11 -35 7 -24 -13z"/>
<path d="M4628 6076 c-10 -14 -18 -34 -18 -45 0 -13 7 -21 18 -21 9 0 31 -9
47 -20 37 -25 115 -28 115 -5 0 9 7 27 16 40 25 39 13 51 -58 58 -34 4 -72 9
-83 12 -14 3 -26 -3 -37 -19z"/>
<path d="M6590 5930 c-7 -16 -19 -35 -27 -41 -21 -18 -56 -69 -46 -69 5 0 30
18 56 39 26 22 53 41 60 44 9 3 9 9 0 30 -16 35 -28 34 -43 -3z"/>
<path d="M5387 5916 c5 -24 27 -36 67 -36 16 0 16 2 5 16 -11 13 -61 44 -72
44 -2 0 -2 -11 0 -24z"/>
<path d="M5565 5931 l-70 -6 57 -13 c32 -7 60 -17 63 -22 3 -5 19 -4 35 1 27
10 34 7 85 -37 30 -26 60 -62 67 -80 11 -31 38 -38 38 -9 0 22 -94 120 -115
120 -14 0 -21 8 -23 28 -4 30 2 29 -137 18z"/>
<path d="M6870 5909 c-19 -12 -57 -42 -84 -66 -54 -48 -114 -83 -143 -83 -16
1 -15 3 5 19 22 19 31 61 13 61 -22 0 -92 -96 -115 -158 -14 -37 -39 -103 -56
-147 -36 -97 -79 -159 -136 -195 l-43 -27 36 -17 c35 -17 36 -17 30 -69 l-5
-52 42 -26 c46 -28 79 -84 92 -155 10 -56 20 -71 51 -77 16 -3 62 -30 103 -60
109 -79 136 -91 206 -91 42 -1 68 -6 80 -17 11 -9 29 -22 42 -28 18 -9 22 -9
22 2 0 25 31 41 91 47 53 5 59 4 68 -17 12 -25 88 -79 98 -69 4 3 -7 21 -23
39 -59 64 -59 60 -21 120 21 33 46 58 66 66 26 11 29 16 20 33 -8 15 -5 25 15
48 13 16 30 46 37 67 16 45 18 191 5 384 l-9 136 32 6 c54 11 30 79 -43 122
-56 33 -78 58 -78 90 0 21 -5 25 -32 25 -19 0 -53 13 -82 31 -50 33 -113 44
-121 22 -2 -6 8 -19 24 -28 15 -9 20 -14 10 -11 -10 3 -54 6 -97 6 l-79 0 10
30 c6 16 9 36 7 45 -3 13 -8 12 -38 -6z m-112 -155 c12 -8 22 -22 22 -30 0
-21 -47 -17 -60 5 -22 42 -3 54 38 25z m368 -98 c73 -33 135 -93 166 -161 19
-42 23 -66 22 -145 -1 -57 -8 -117 -18 -151 -94 -315 -549 -402 -741 -142 -79
108 -99 289 -42 399 50 98 155 178 282 216 94 28 251 20 331 -16z"/>
<path d="M6855 5660 c-98 -15 -166 -49 -231 -114 -84 -84 -107 -147 -102 -271
4 -81 8 -97 43 -164 40 -76 83 -116 155 -148 22 -10 80 -17 157 -20 l122 -6
74 35 c97 47 138 85 172 160 23 52 29 81 33 163 3 85 1 108 -18 158 -34 90
-115 169 -200 195 -51 16 -148 21 -205 12z m183 -62 c34 -8 61 -26 103 -67 72
-70 95 -136 86 -246 -12 -137 -51 -200 -162 -258 -56 -30 -67 -32 -160 -32
-120 0 -181 16 -233 61 -89 75 -126 232 -82 347 26 68 58 109 114 145 89 56
227 77 334 50z"/>
<path d="M5235 5828 c-123 -14 -213 -69 -303 -184 l-23 -29 5 38 c4 28 1 37
-10 37 -8 0 -14 -8 -14 -19 0 -10 -3 -33 -6 -50 -6 -27 -4 -31 15 -31 14 0 23
-8 27 -26 l7 -25 39 41 c80 83 182 127 313 136 207 15 407 -89 481 -248 26
-56 29 -74 29 -163 0 -88 -3 -107 -27 -158 -54 -114 -170 -201 -306 -227 -206
-41 -444 86 -482 256 -6 27 -18 56 -26 65 -14 15 -12 22 14 64 l29 47 7 -67
c10 -103 38 -165 101 -224 30 -29 81 -64 112 -78 140 -64 363 -28 477 77 63
58 81 111 81 235 0 89 -3 107 -29 163 -35 75 -87 125 -170 162 -102 46 -166
59 -244 50 -177 -23 -279 -107 -318 -265 -7 -27 -13 -43 -13 -35 -1 9 -16 20
-33 25 -22 7 -34 17 -36 32 -3 17 1 20 17 16 15 -4 21 -1 21 10 0 8 3 23 7 33
5 13 3 16 -10 11 -11 -4 -20 1 -27 13 -6 11 -17 20 -25 20 -24 0 -29 -50 -15
-150 19 -144 23 -222 12 -261 -11 -42 -6 -53 53 -124 49 -58 65 -86 65 -114 0
-17 -5 -20 -30 -14 -17 3 -30 1 -30 -5 0 -19 25 -30 83 -37 62 -8 80 -21 54
-40 -10 -7 -17 -20 -17 -30 0 -16 2 -16 25 -1 35 23 55 20 55 -8 0 -14 3 -27
8 -29 8 -6 197 29 212 38 6 3 10 0 10 -7 0 -32 26 -67 54 -72 65 -13 106 2 87
33 -6 9 -11 10 -15 2 -11 -17 -61 -13 -79 7 -27 30 -21 49 18 55 72 12 129 51
243 165 61 63 112 107 112 98 0 -28 23 -66 41 -66 16 0 16 3 -2 37 -22 43 -24
112 -7 199 13 70 13 70 33 54 12 -10 18 -8 35 11 22 27 24 35 10 44 -5 3 -10
1 -10 -4 0 -6 -7 -11 -15 -11 -8 0 -15 6 -15 13 0 6 -3 22 -6 35 -5 16 -2 22
9 22 9 0 19 9 22 20 5 16 -7 38 -45 88 -50 64 -52 69 -46 115 5 50 -8 64 -24
23 -14 -39 -26 -38 -53 4 -102 153 -299 234 -512 208z m285 -242 c106 -43 135
-67 172 -143 30 -61 33 -76 33 -153 0 -106 -26 -166 -89 -210 -111 -76 -290
-98 -396 -48 -133 62 -186 151 -178 301 8 141 65 222 185 264 89 31 180 27
273 -11z"/>
<path d="M4951 5756 c-21 -33 -21 -56 -2 -56 4 0 15 16 25 36 24 51 5 66 -23
20z"/>
<path d="M7549 5739 c-9 -17 -17 -20 -45 -16 -39 7 -41 1 -14 -31 17 -20 22
-22 42 -11 37 19 58 41 58 61 0 25 -27 23 -41 -3z"/>
<path d="M6237 5597 c-3 -9 -30 -30 -60 -47 -63 -35 -99 -71 -79 -77 18 -7 15
-27 -8 -48 -19 -17 -19 -19 -2 -31 26 -20 51 -18 45 4 -4 16 7 34 93 154 14
20 24 43 22 49 -3 9 -6 8 -11 -4z"/>
<path d="M4163 5389 c14 -8 16 -18 11 -45 -3 -18 -3 -42 1 -51 6 -17 7 -17 16
0 6 9 21 17 34 17 28 0 29 3 15 30 -10 18 -70 60 -86 60 -5 0 -1 -5 9 -11z"/>
<path d="M6095 5321 c-3 -6 1 -11 9 -11 21 0 20 -19 -1 -42 -15 -17 -15 -18 5
-18 12 0 26 9 32 20 6 11 18 20 26 20 9 0 14 7 12 18 -4 20 -72 30 -83 13z"/>
<path d="M4167 5256 c-4 -9 -19 -21 -35 -27 -24 -8 -28 -14 -24 -39 3 -22 -2
-35 -22 -53 -14 -13 -26 -35 -26 -48 0 -13 -9 -43 -20 -66 l-19 -43 38 41 c32
33 43 39 65 33 16 -4 26 -2 26 5 0 6 -12 13 -27 17 -46 10 -53 13 -53 24 0 6
8 13 18 17 62 23 110 90 94 134 -8 19 -9 20 -15 5z"/>
<path d="M7418 5208 c-9 -7 -19 -23 -23 -36 -6 -20 -4 -23 16 -20 26 3 60 68
36 68 -7 0 -20 -6 -29 -12z"/>
<path d="M7445 5105 c-5 -11 -19 -33 -32 -48 -38 -47 -29 -67 13 -26 28 28 35
42 32 65 -4 26 -5 27 -13 9z"/>
<path d="M4890 4981 c0 -25 49 -66 64 -51 7 7 3 19 -11 37 -25 35 -53 42 -53
14z"/>
<path d="M5962 4960 c-17 -27 -15 -60 3 -60 18 0 37 43 29 65 -8 20 -17 19
-32 -5z"/>
<path d="M3990 4930 c-17 -34 -28 -82 -16 -69 8 7 46 109 41 109 -3 0 -14 -18
-25 -40z"/>
<path d="M4796 4775 c-18 -23 -25 -42 -21 -53 5 -14 12 -10 41 23 19 22 33 44
31 49 -7 22 -26 15 -51 -19z"/>
<path d="M4686 4745 c-18 -14 -18 -15 5 -35 l24 -20 -37 -33 -38 -34 49 -23
c55 -25 95 -22 67 6 -11 10 -16 34 -16 69 0 35 -5 59 -16 69 -18 19 -14 19
-38 1z"/>
<path d="M3936 4723 c-6 -14 -5 -15 5 -6 7 7 10 15 7 18 -3 3 -9 -2 -12 -12z"/>
<path d="M4848 4723 c-20 -24 -41 -64 -35 -69 10 -11 35 10 50 42 10 19 17 37
17 39 0 11 -18 4 -32 -12z"/>
<path d="M3862 4668 c-18 -18 -15 -28 8 -28 29 0 25 -20 -20 -110 -22 -44 -40
-92 -40 -107 0 -20 12 -1 41 65 49 116 56 144 35 164 -8 9 -12 18 -9 22 4 3 4
6 2 6 -3 0 -10 -5 -17 -12z"/>
<path d="M5806 4664 c-10 -26 -7 -32 12 -27 10 2 24 -3 31 -11 18 -22 31 -20
31 3 0 20 -34 51 -56 51 -7 0 -15 -7 -18 -16z"/>
<path d="M6445 4620 c-5 -9 60 -70 75 -70 4 0 15 -3 24 -6 24 -9 20 19 -7 44
-27 25 -84 45 -92 32z"/>
<path d="M4980 4595 c-5 -14 -16 -25 -25 -25 -23 0 -18 -18 10 -36 15 -10 32
-13 42 -9 17 8 17 8 1 12 -19 5 -24 38 -8 48 13 8 13 35 0 35 -6 0 -15 -11
-20 -25z"/>
<path d="M4667 4524 c-14 -14 -7 -24 16 -24 13 0 28 -5 35 -12 16 -16 29 -1
16 20 -12 18 -55 28 -67 16z"/>
<path d="M6745 4507 c-7 -26 9 -77 24 -77 15 0 41 42 41 66 0 38 -56 47 -65
11z"/>
<path d="M5278 4509 c-24 -14 -22 -35 4 -53 30 -21 35 -20 42 8 12 47 -9 67
-46 45z"/>
<path d="M4786 4489 c-24 -19 -38 -70 -18 -68 26 2 67 39 70 62 4 33 -15 35
-52 6z"/>
<path d="M5931 4478 c28 -55 79 -80 79 -40 0 25 -41 62 -68 62 -20 0 -21 -2
-11 -22z"/>
<path d="M4587 4460 c-14 -16 -37 -32 -51 -36 -35 -9 -28 -28 12 -32 23 -2 32
1 32 12 0 8 14 23 30 33 31 18 41 53 16 53 -8 0 -25 -13 -39 -30z"/>
<path d="M4978 4453 c-24 -4 -56 -29 -47 -37 2 -2 24 -1 49 3 29 4 45 11 45
20 0 17 -10 19 -47 14z"/>
<path d="M3770 4348 c0 -24 -5 -70 -10 -103 -6 -33 -10 -100 -11 -148 0 -73 4
-96 23 -135 13 -25 33 -52 46 -60 22 -14 22 -13 -5 38 -42 80 -44 233 -7 418
6 28 4 32 -15 32 -18 0 -21 -6 -21 -42z"/>
<path d="M3492 4125 c-156 -68 -276 -322 -361 -765 -41 -212 -56 -316 -53
-362 l3 -47 35 16 c39 19 42 42 6 58 -27 12 -27 21 -2 171 70 405 184 718 309
843 68 68 136 97 204 88 29 -4 36 -3 22 3 -31 14 -126 11 -163 -5z"/>
<path d="M3870 3857 c0 -39 13 -67 31 -67 13 0 20 70 9 90 -19 36 -40 24 -40
-23z"/>
<path d="M4828 3714 c-42 -52 -51 -81 -19 -65 32 17 81 80 75 96 -9 23 -16 19
-56 -31z"/>
<path d="M4540 3717 c0 -3 7 -21 15 -41 18 -43 55 -51 55 -12 0 13 -6 28 -12
34 -15 11 -58 26 -58 19z"/>
<path d="M4800 3524 c0 -6 -14 -32 -31 -57 -38 -58 -34 -94 6 -57 32 30 53 96
37 112 -7 7 -12 8 -12 2z"/>
<path d="M4655 3459 c-4 -27 -5 -52 -2 -55 10 -10 37 10 60 45 l26 38 -25 12
c-44 20 -52 14 -59 -40z"/>
<path d="M4414 3336 c-13 -34 0 -51 40 -51 23 0 41 5 44 13 2 8 -7 12 -27 12
-20 0 -31 5 -31 14 0 21 -19 30 -26 12z"/>
<path d="M4584 3330 c-25 -10 -56 -49 -48 -61 3 -5 13 -5 22 0 9 5 25 12 35
15 10 3 17 15 17 31 0 14 -1 25 -2 24 -2 0 -13 -4 -24 -9z"/>
<path d="M5328 3275 c-17 -34 -17 -35 2 -35 10 0 22 -4 25 -10 12 -20 24 -10
31 25 7 40 7 40 -21 48 -16 5 -24 -1 -37 -28z"/>
<path d="M4650 3224 c0 -3 8 -19 17 -35 16 -26 16 -31 3 -39 -8 -5 -30 -7 -47
-4 -18 4 -33 4 -33 0 0 -12 82 -47 99 -41 23 7 71 51 71 64 0 6 -20 22 -43 36
-42 24 -67 31 -67 19z"/>
<path d="M4483 3198 c-20 -10 -37 -44 -28 -58 2 -4 18 -5 34 -2 28 4 30 7 24
36 -3 17 -6 32 -7 32 -1 1 -11 -3 -23 -8z"/>
<path d="M3437 3143 c-4 -3 -7 -26 -7 -50 0 -47 -14 -83 -31 -83 -6 0 -25 16
-42 35 -37 42 -48 44 -41 8 4 -20 -2 -38 -20 -62 -29 -39 -28 -49 2 -30 18 11
26 9 59 -14 51 -35 59 -34 67 8 4 19 17 47 30 61 21 25 22 30 9 77 -14 55 -17
60 -26 50z"/>
<path d="M4390 3003 c0 -28 61 -46 75 -22 9 14 6 16 -37 24 -22 4 -38 3 -38
-2z"/>
<path d="M5100 2866 c0 -18 38 -36 76 -36 49 0 23 35 -33 45 -36 6 -43 4 -43
-9z"/>
<path d="M4477 2773 c-9 -9 -9 -43 1 -43 4 0 17 -3 30 -6 27 -8 31 16 6 40
-17 17 -27 20 -37 9z"/>
<path d="M4910 2724 c0 -3 11 -19 25 -36 18 -21 25 -25 25 -13 0 25 -19 55
-35 55 -8 0 -15 -3 -15 -6z"/>
<path d="M5042 2698 c-17 -17 -15 -28 4 -28 8 0 29 -14 46 -31 22 -22 34 -27
42 -19 8 8 5 21 -9 48 -21 40 -59 54 -83 30z"/>
<path d="M4648 2689 c-19 -11 -25 -64 -8 -74 6 -4 10 5 10 19 0 24 3 26 46 26
38 0 45 3 42 18 -4 20 -63 28 -90 11z"/>
<path d="M5400 1491 c0 -21 28 -37 42 -23 14 14 -2 42 -23 42 -12 0 -19 -7
-19 -19z"/>
<path d="M5388 473 c-23 -6 -23 -15 3 -47 25 -31 40 -33 57 -5 27 43 -2 67
-60 52z"/>
<path d="M7250 3462 c0 -12 70 -43 81 -37 16 10 10 21 -16 33 -30 14 -65 16
-65 4z"/>
<path d="M5050 1861 c-5 -11 -10 -33 -10 -50 0 -24 4 -31 20 -31 22 0 40 34
40 76 0 30 -34 33 -50 5z"/>
<path d="M5032 1138 c-7 -7 -12 -20 -12 -31 0 -27 73 -21 78 7 6 31 -41 49
-66 24z"/>
<path d="M6874 2575 c-4 -9 -2 -21 4 -27 15 -15 54 1 50 20 -4 23 -46 28 -54
7z"/>
<path d="M6639 2491 l-23 -18 37 -12 c21 -7 50 -24 66 -37 l29 -24 37 22 c20
13 51 35 68 51 l32 27 -45 -6 c-25 -4 -57 -13 -71 -20 -24 -12 -27 -11 -37 11
-14 31 -59 34 -93 6z"/>
<path d="M6926 2424 c-10 -27 4 -36 31 -18 24 15 27 15 35 0 11 -20 28 -21 28
-1 0 32 -83 49 -94 19z"/>
<path d="M6770 2364 c0 -13 15 -50 25 -62 2 -2 12 1 23 7 20 11 20 11 -6 41
-29 33 -42 38 -42 14z"/>
<path d="M6445 2156 c-45 -30 -75 -69 -75 -96 0 -5 9 -14 20 -20 29 -16 83 4
115 41 29 36 32 59 8 88 l-18 21 -50 -34z"/>
<path d="M6706 2138 c15 -30 18 -31 24 -13 8 22 -5 45 -26 45 -12 0 -11 -6 2
-32z"/>
<path d="M6417 1893 c-18 -17 -6 -62 21 -82 33 -23 52 -13 52 26 0 38 -52 78
-73 56z"/>
<path d="M5793 1399 c-30 -9 -32 -11 -22 -37 11 -28 57 -82 71 -82 4 0 8 29 8
65 0 70 0 70 -57 54z"/>
</g>
</svg>
